# MagicaVoxel @ Ephtracy

# group
o 

# material
mtllib walter.mtl
usemtl palette

# normals
vn -1 0 0
vn 1 0 0
vn 0 0 1
vn 0 0 -1
vn 0 -1 0
vn 0 1 0

# texcoords
vt 0.0410156 0.5
vt 0.0917969 0.5
vt 0.279297 0.5

# verts
v -1.1 2.4 -0.3
v -1.1 2.4 -0.8
v -1.1 2.5 -0.8
v -1.1 2.5 -0.9
v -1.1 2.8 -0.3
v -1.1 2.8 -0.9
v -1 1.5 0
v -1 1.5 -0.6
v -1 1.6 0
v -1 1.6 -0.6
v -0.9 1.5 -0.6
v -0.9 1.5 -0.7
v -0.9 1.6 -0.4
v -0.9 1.6 -0.5
v -0.9 1.6 -0.6
v -0.9 1.6 -0.7
v -0.9 1.9 -0.3
v -0.9 1.9 -0.4
v -0.9 1.9 -0.5
v -0.9 1.9 -0.6
v -0.9 2 -0.6
v -0.9 2 -0.7
v -0.9 2.1 -0.2
v -0.9 2.1 -0.3
v -0.9 2.1 -0.7
v -0.9 2.1 -0.8
v -0.9 2.2 -0.1
v -0.9 2.2 -0.2
v -0.9 2.2 -0.8
v -0.9 2.2 -0.9
v -0.9 2.3 -0.9
v -0.9 2.3 -1.1
v -0.9 2.4 -0.3
v -0.9 2.4 -0.8
v -0.9 2.4 -1.1
v -0.9 2.4 -1.2
v -0.9 2.5 -0.8
v -0.9 2.5 -0.9
v -0.9 2.8 -0.3
v -0.9 2.8 -0.9
v -0.9 2.9 -0.1
v -0.9 2.9 -1.2
v -0.8 1.5 0
v -0.8 1.5 -0.3
v -0.8 1.6 0
v -0.8 1.6 -0.3
v -0.8 2.4 -1.2
v -0.8 2.4 -1.3
v -0.8 2.9 -0.1
v -0.8 2.9 -0.4
v -0.8 2.9 -1.2
v -0.8 2.9 -1.3
v -0.8 3.4 0.1
v -0.8 3.4 -0.1
v -0.8 4 -0.3
v -0.8 4 -0.4
v -0.8 4.1 0.1
v -0.8 4.1 -0.3
v -0.7 2.6 -1.3
v -0.7 2.6 -1.4
v -0.7 2.7 -1.4
v -0.7 2.7 -1.5
v -0.7 2.9 -1.3
v -0.7 2.9 -1.5
v -0.7 3.6 0.2
v -0.7 3.6 0.1
v -0.7 3.8 0.3
v -0.7 3.8 0.2
v -0.7 4 0.3
v -0.7 4 0.1
v -0.7 4.1 0.1
v -0.7 4.1 -0.3
v -0.7 4.3 -0.2
v -0.7 4.3 -0.3
v -0.7 4.4 -0.1
v -0.7 4.4 -0.2
v -0.7 4.5 0.1
v -0.7 4.5 -0.1
v -0.5 1.5 0
v -0.5 1.5 -0.6
v -0.5 1.6 0
v -0.5 1.6 -0.6
v -0.5 1.9 -0.3
v -0.5 1.9 -0.6
v -0.5 2 -0.6
v -0.5 2 -0.7
v -0.5 2.1 -0.2
v -0.5 2.1 -0.3
v -0.5 2.1 -0.7
v -0.5 2.1 -0.8
v -0.5 2.2 -0.2
v -0.5 2.2 -0.8
v -0.4 1.5 -0.6
v -0.4 1.5 -0.7
v -0.4 1.6 -0.4
v -0.4 1.6 -0.5
v -0.4 1.6 -0.6
v -0.4 1.6 -0.7
v -0.4 1.9 -0.4
v -0.4 1.9 -0.5
v -0.3 1.5 0
v -0.3 1.5 -0.3
v -0.3 1.6 0
v -0.3 1.6 -0.3
v -0.9 1.5 0
v -0.9 1.5 -0.3
v -0.9 1.6 0
v -0.9 1.6 -0.3
v -0.8 1.5 -0.6
v -0.8 1.5 -0.7
v -0.8 1.6 -0.4
v -0.8 1.6 -0.5
v -0.8 1.6 -0.6
v -0.8 1.6 -0.7
v -0.8 1.9 -0.4
v -0.8 1.9 -0.5
v -0.7 1.5 0
v -0.7 1.5 -0.6
v -0.7 1.6 0
v -0.7 1.6 -0.6
v -0.7 1.9 -0.3
v -0.7 1.9 -0.6
v -0.7 2 -0.6
v -0.7 2 -0.7
v -0.7 2.1 -0.2
v -0.7 2.1 -0.3
v -0.7 2.1 -0.7
v -0.7 2.1 -0.8
v -0.7 2.2 -0.2
v -0.7 2.2 -0.8
v -0.5 2.6 -1.3
v -0.5 2.6 -1.4
v -0.5 2.7 -1.4
v -0.5 2.7 -1.5
v -0.5 2.9 -1.3
v -0.5 2.9 -1.5
v -0.5 3.6 0.2
v -0.5 3.6 0.1
v -0.5 3.8 0.3
v -0.5 3.8 0.2
v -0.5 4 0.3
v -0.5 4 0.1
v -0.5 4.1 0.1
v -0.5 4.1 -0.3
v -0.5 4.3 -0.2
v -0.5 4.3 -0.3
v -0.5 4.4 -0.1
v -0.5 4.4 -0.2
v -0.5 4.5 0.1
v -0.5 4.5 -0.1
v -0.4 1.5 0
v -0.4 1.5 -0.3
v -0.4 1.6 0
v -0.4 1.6 -0.3
v -0.4 2.4 -1.2
v -0.4 2.4 -1.3
v -0.4 2.9 -0.1
v -0.4 2.9 -0.4
v -0.4 2.9 -1.2
v -0.4 2.9 -1.3
v -0.4 3.4 0.1
v -0.4 3.4 -0.1
v -0.4 4 -0.3
v -0.4 4 -0.4
v -0.4 4.1 0.1
v -0.4 4.1 -0.3
v -0.3 1.5 -0.6
v -0.3 1.5 -0.7
v -0.3 1.6 -0.4
v -0.3 1.6 -0.5
v -0.3 1.6 -0.6
v -0.3 1.6 -0.7
v -0.3 1.9 -0.3
v -0.3 1.9 -0.4
v -0.3 1.9 -0.5
v -0.3 1.9 -0.6
v -0.3 2 -0.6
v -0.3 2 -0.7
v -0.3 2.1 -0.2
v -0.3 2.1 -0.3
v -0.3 2.1 -0.7
v -0.3 2.1 -0.8
v -0.3 2.2 -0.1
v -0.3 2.2 -0.2
v -0.3 2.2 -0.8
v -0.3 2.2 -0.9
v -0.3 2.3 -0.9
v -0.3 2.3 -1.1
v -0.3 2.4 -0.3
v -0.3 2.4 -0.8
v -0.3 2.4 -1.1
v -0.3 2.4 -1.2
v -0.3 2.5 -0.8
v -0.3 2.5 -0.9
v -0.3 2.8 -0.3
v -0.3 2.8 -0.9
v -0.3 2.9 -0.1
v -0.3 2.9 -1.2
v -0.2 1.5 0
v -0.2 1.5 -0.6
v -0.2 1.6 0
v -0.2 1.6 -0.6
v -0.1 2.4 -0.3
v -0.1 2.4 -0.8
v -0.1 2.5 -0.8
v -0.1 2.5 -0.9
v -0.1 2.8 -0.3
v -0.1 2.8 -0.9
v -0.7 3.8 0.3
v -0.7 4 0.3
v -0.5 3.8 0.3
v -0.5 4 0.3
v -0.7 3.6 0.2
v -0.7 3.8 0.2
v -0.5 3.6 0.2
v -0.5 3.8 0.2
v -0.8 3.4 0.1
v -0.8 4.1 0.1
v -0.7 3.6 0.1
v -0.7 4 0.1
v -0.7 4.1 0.1
v -0.7 4.5 0.1
v -0.5 3.6 0.1
v -0.5 4 0.1
v -0.5 4.1 0.1
v -0.5 4.5 0.1
v -0.4 3.4 0.1
v -0.4 4.1 0.1
v -1 1.5 0
v -1 1.6 0
v -0.9 1.5 0
v -0.9 1.6 0
v -0.8 1.5 0
v -0.8 1.6 0
v -0.7 1.5 0
v -0.7 1.6 0
v -0.5 1.5 0
v -0.5 1.6 0
v -0.4 1.5 0
v -0.4 1.6 0
v -0.3 1.5 0
v -0.3 1.6 0
v -0.2 1.5 0
v -0.2 1.6 0
v -0.9 2.2 -0.1
v -0.9 2.9 -0.1
v -0.8 2.9 -0.1
v -0.8 3.4 -0.1
v -0.4 2.9 -0.1
v -0.4 3.4 -0.1
v -0.3 2.2 -0.1
v -0.3 2.9 -0.1
v -0.9 2.1 -0.2
v -0.9 2.2 -0.2
v -0.7 2.1 -0.2
v -0.7 2.2 -0.2
v -0.5 2.1 -0.2
v -0.5 2.2 -0.2
v -0.3 2.1 -0.2
v -0.3 2.2 -0.2
v -1.1 2.4 -0.3
v -1.1 2.8 -0.3
v -0.9 1.5 -0.3
v -0.9 1.6 -0.3
v -0.9 1.9 -0.3
v -0.9 2.1 -0.3
v -0.9 2.4 -0.3
v -0.9 2.8 -0.3
v -0.8 1.5 -0.3
v -0.8 1.6 -0.3
v -0.7 1.9 -0.3
v -0.7 2.1 -0.3
v -0.5 1.9 -0.3
v -0.5 2.1 -0.3
v -0.4 1.5 -0.3
v -0.4 1.6 -0.3
v -0.3 1.5 -0.3
v -0.3 1.6 -0.3
v -0.3 1.9 -0.3
v -0.3 2.1 -0.3
v -0.3 2.4 -0.3
v -0.3 2.8 -0.3
v -0.1 2.4 -0.3
v -0.1 2.8 -0.3
v -0.9 1.6 -0.4
v -0.9 1.9 -0.4
v -0.8 1.6 -0.4
v -0.8 1.9 -0.4
v -0.4 1.6 -0.4
v -0.4 1.9 -0.4
v -0.3 1.6 -0.4
v -0.3 1.9 -0.4
v -0.7 4.4 -0.1
v -0.7 4.5 -0.1
v -0.5 4.4 -0.1
v -0.5 4.5 -0.1
v -0.7 4.3 -0.2
v -0.7 4.4 -0.2
v -0.5 4.3 -0.2
v -0.5 4.4 -0.2
v -0.8 4 -0.3
v -0.8 4.1 -0.3
v -0.7 4.1 -0.3
v -0.7 4.3 -0.3
v -0.5 4.1 -0.3
v -0.5 4.3 -0.3
v -0.4 4 -0.3
v -0.4 4.1 -0.3
v -0.8 2.9 -0.4
v -0.8 4 -0.4
v -0.4 2.9 -0.4
v -0.4 4 -0.4
v -0.9 1.6 -0.5
v -0.9 1.9 -0.5
v -0.8 1.6 -0.5
v -0.8 1.9 -0.5
v -0.4 1.6 -0.5
v -0.4 1.9 -0.5
v -0.3 1.6 -0.5
v -0.3 1.9 -0.5
v -1 1.5 -0.6
v -1 1.6 -0.6
v -0.9 1.5 -0.6
v -0.9 1.6 -0.6
v -0.9 1.9 -0.6
v -0.9 2 -0.6
v -0.8 1.5 -0.6
v -0.8 1.6 -0.6
v -0.7 1.5 -0.6
v -0.7 1.6 -0.6
v -0.7 1.9 -0.6
v -0.7 2 -0.6
v -0.5 1.5 -0.6
v -0.5 1.6 -0.6
v -0.5 1.9 -0.6
v -0.5 2 -0.6
v -0.4 1.5 -0.6
v -0.4 1.6 -0.6
v -0.3 1.5 -0.6
v -0.3 1.6 -0.6
v -0.3 1.9 -0.6
v -0.3 2 -0.6
v -0.2 1.5 -0.6
v -0.2 1.6 -0.6
v -0.9 1.5 -0.7
v -0.9 1.6 -0.7
v -0.9 2 -0.7
v -0.9 2.1 -0.7
v -0.8 1.5 -0.7
v -0.8 1.6 -0.7
v -0.7 2 -0.7
v -0.7 2.1 -0.7
v -0.5 2 -0.7
v -0.5 2.1 -0.7
v -0.4 1.5 -0.7
v -0.4 1.6 -0.7
v -0.3 1.5 -0.7
v -0.3 1.6 -0.7
v -0.3 2 -0.7
v -0.3 2.1 -0.7
v -1.1 2.4 -0.8
v -1.1 2.5 -0.8
v -0.9 2.1 -0.8
v -0.9 2.2 -0.8
v -0.9 2.4 -0.8
v -0.9 2.5 -0.8
v -0.7 2.1 -0.8
v -0.7 2.2 -0.8
v -0.5 2.1 -0.8
v -0.5 2.2 -0.8
v -0.3 2.1 -0.8
v -0.3 2.2 -0.8
v -0.3 2.4 -0.8
v -0.3 2.5 -0.8
v -0.1 2.4 -0.8
v -0.1 2.5 -0.8
v -1.1 2.5 -0.9
v -1.1 2.8 -0.9
v -0.9 2.2 -0.9
v -0.9 2.3 -0.9
v -0.9 2.5 -0.9
v -0.9 2.8 -0.9
v -0.3 2.2 -0.9
v -0.3 2.3 -0.9
v -0.3 2.5 -0.9
v -0.3 2.8 -0.9
v -0.1 2.5 -0.9
v -0.1 2.8 -0.9
v -0.9 2.3 -1.1
v -0.9 2.4 -1.1
v -0.3 2.3 -1.1
v -0.3 2.4 -1.1
v -0.9 2.4 -1.2
v -0.9 2.9 -1.2
v -0.8 2.4 -1.2
v -0.8 2.9 -1.2
v -0.4 2.4 -1.2
v -0.4 2.9 -1.2
v -0.3 2.4 -1.2
v -0.3 2.9 -1.2
v -0.8 2.4 -1.3
v -0.8 2.9 -1.3
v -0.7 2.6 -1.3
v -0.7 2.9 -1.3
v -0.5 2.6 -1.3
v -0.5 2.9 -1.3
v -0.4 2.4 -1.3
v -0.4 2.9 -1.3
v -0.7 2.6 -1.4
v -0.7 2.7 -1.4
v -0.5 2.6 -1.4
v -0.5 2.7 -1.4
v -0.7 2.7 -1.5
v -0.7 2.9 -1.5
v -0.5 2.7 -1.5
v -0.5 2.9 -1.5
v -1 1.5 0
v -0.9 1.5 0
v -0.8 1.5 0
v -0.7 1.5 0
v -0.5 1.5 0
v -0.4 1.5 0
v -0.3 1.5 0
v -0.2 1.5 0
v -0.9 1.5 -0.3
v -0.8 1.5 -0.3
v -0.4 1.5 -0.3
v -0.3 1.5 -0.3
v -1 1.5 -0.6
v -0.9 1.5 -0.6
v -0.8 1.5 -0.6
v -0.7 1.5 -0.6
v -0.5 1.5 -0.6
v -0.4 1.5 -0.6
v -0.3 1.5 -0.6
v -0.2 1.5 -0.6
v -0.9 1.5 -0.7
v -0.8 1.5 -0.7
v -0.4 1.5 -0.7
v -0.3 1.5 -0.7
v -0.9 1.9 -0.3
v -0.7 1.9 -0.3
v -0.5 1.9 -0.3
v -0.3 1.9 -0.3
v -0.9 1.9 -0.4
v -0.8 1.9 -0.4
v -0.4 1.9 -0.4
v -0.3 1.9 -0.4
v -0.9 1.9 -0.5
v -0.8 1.9 -0.5
v -0.4 1.9 -0.5
v -0.3 1.9 -0.5
v -0.9 1.9 -0.6
v -0.7 1.9 -0.6
v -0.5 1.9 -0.6
v -0.3 1.9 -0.6
v -0.9 2 -0.6
v -0.7 2 -0.6
v -0.5 2 -0.6
v -0.3 2 -0.6
v -0.9 2 -0.7
v -0.7 2 -0.7
v -0.5 2 -0.7
v -0.3 2 -0.7
v -0.9 2.1 -0.2
v -0.7 2.1 -0.2
v -0.5 2.1 -0.2
v -0.3 2.1 -0.2
v -0.9 2.1 -0.3
v -0.7 2.1 -0.3
v -0.5 2.1 -0.3
v -0.3 2.1 -0.3
v -0.9 2.1 -0.7
v -0.7 2.1 -0.7
v -0.5 2.1 -0.7
v -0.3 2.1 -0.7
v -0.9 2.1 -0.8
v -0.7 2.1 -0.8
v -0.5 2.1 -0.8
v -0.3 2.1 -0.8
v -0.9 2.2 -0.1
v -0.3 2.2 -0.1
v -0.9 2.2 -0.2
v -0.7 2.2 -0.2
v -0.5 2.2 -0.2
v -0.3 2.2 -0.2
v -0.9 2.2 -0.8
v -0.7 2.2 -0.8
v -0.5 2.2 -0.8
v -0.3 2.2 -0.8
v -0.9 2.2 -0.9
v -0.3 2.2 -0.9
v -0.9 2.3 -0.9
v -0.3 2.3 -0.9
v -0.9 2.3 -1.1
v -0.3 2.3 -1.1
v -1.1 2.4 -0.3
v -0.9 2.4 -0.3
v -0.3 2.4 -0.3
v -0.1 2.4 -0.3
v -1.1 2.4 -0.8
v -0.9 2.4 -0.8
v -0.3 2.4 -0.8
v -0.1 2.4 -0.8
v -0.9 2.4 -1.1
v -0.3 2.4 -1.1
v -0.9 2.4 -1.2
v -0.8 2.4 -1.2
v -0.4 2.4 -1.2
v -0.3 2.4 -1.2
v -0.8 2.4 -1.3
v -0.4 2.4 -1.3
v -1.1 2.5 -0.8
v -0.9 2.5 -0.8
v -0.3 2.5 -0.8
v -0.1 2.5 -0.8
v -1.1 2.5 -0.9
v -0.9 2.5 -0.9
v -0.3 2.5 -0.9
v -0.1 2.5 -0.9
v -0.7 2.6 -1.3
v -0.5 2.6 -1.3
v -0.7 2.6 -1.4
v -0.5 2.6 -1.4
v -0.7 2.7 -1.4
v -0.5 2.7 -1.4
v -0.7 2.7 -1.5
v -0.5 2.7 -1.5
v -0.8 3.4 0.1
v -0.4 3.4 0.1
v -0.8 3.4 -0.1
v -0.4 3.4 -0.1
v -0.7 3.6 0.2
v -0.5 3.6 0.2
v -0.7 3.6 0.1
v -0.5 3.6 0.1
v -0.7 3.8 0.3
v -0.5 3.8 0.3
v -0.7 3.8 0.2
v -0.5 3.8 0.2
v -1 1.6 0
v -0.9 1.6 0
v -0.8 1.6 0
v -0.7 1.6 0
v -0.5 1.6 0
v -0.4 1.6 0
v -0.3 1.6 0
v -0.2 1.6 0
v -0.9 1.6 -0.3
v -0.8 1.6 -0.3
v -0.4 1.6 -0.3
v -0.3 1.6 -0.3
v -0.9 1.6 -0.4
v -0.8 1.6 -0.4
v -0.4 1.6 -0.4
v -0.3 1.6 -0.4
v -0.9 1.6 -0.5
v -0.8 1.6 -0.5
v -0.4 1.6 -0.5
v -0.3 1.6 -0.5
v -1 1.6 -0.6
v -0.9 1.6 -0.6
v -0.8 1.6 -0.6
v -0.7 1.6 -0.6
v -0.5 1.6 -0.6
v -0.4 1.6 -0.6
v -0.3 1.6 -0.6
v -0.2 1.6 -0.6
v -0.9 1.6 -0.7
v -0.8 1.6 -0.7
v -0.4 1.6 -0.7
v -0.3 1.6 -0.7
v -1.1 2.8 -0.3
v -0.9 2.8 -0.3
v -0.3 2.8 -0.3
v -0.1 2.8 -0.3
v -1.1 2.8 -0.9
v -0.9 2.8 -0.9
v -0.3 2.8 -0.9
v -0.1 2.8 -0.9
v -0.9 2.9 -0.1
v -0.8 2.9 -0.1
v -0.4 2.9 -0.1
v -0.3 2.9 -0.1
v -0.8 2.9 -0.4
v -0.4 2.9 -0.4
v -0.9 2.9 -1.2
v -0.8 2.9 -1.2
v -0.4 2.9 -1.2
v -0.3 2.9 -1.2
v -0.8 2.9 -1.3
v -0.7 2.9 -1.3
v -0.5 2.9 -1.3
v -0.4 2.9 -1.3
v -0.7 2.9 -1.5
v -0.5 2.9 -1.5
v -0.7 4 0.3
v -0.5 4 0.3
v -0.7 4 0.1
v -0.5 4 0.1
v -0.8 4 -0.3
v -0.4 4 -0.3
v -0.8 4 -0.4
v -0.4 4 -0.4
v -0.8 4.1 0.1
v -0.7 4.1 0.1
v -0.5 4.1 0.1
v -0.4 4.1 0.1
v -0.8 4.1 -0.3
v -0.7 4.1 -0.3
v -0.5 4.1 -0.3
v -0.4 4.1 -0.3
v -0.7 4.3 -0.2
v -0.5 4.3 -0.2
v -0.7 4.3 -0.3
v -0.5 4.3 -0.3
v -0.7 4.4 -0.1
v -0.5 4.4 -0.1
v -0.7 4.4 -0.2
v -0.5 4.4 -0.2
v -0.7 4.5 0.1
v -0.5 4.5 0.1
v -0.7 4.5 -0.1
v -0.5 4.5 -0.1

# faces
f 3/1/1 2/1/1 1/1/1
f 5/1/1 3/1/1 1/1/1
f 5/1/1 4/1/1 3/1/1
f 6/1/1 4/1/1 5/1/1
f 9/2/1 8/2/1 7/2/1
f 10/2/1 8/2/1 9/2/1
f 15/2/1 12/2/1 11/2/1
f 16/2/1 12/2/1 15/2/1
f 18/2/1 14/2/1 13/2/1
f 19/2/1 14/2/1 18/2/1
f 21/1/1 18/1/1 17/1/1
f 21/1/1 20/1/1 19/1/1
f 21/1/1 19/1/1 18/1/1
f 24/1/1 21/1/1 17/1/1
f 24/1/1 22/1/1 21/1/1
f 25/1/1 22/1/1 24/1/1
f 28/1/1 25/1/1 24/1/1
f 28/1/1 26/1/1 25/1/1
f 28/1/1 24/1/1 23/1/1
f 29/1/1 26/1/1 28/1/1
f 31/1/1 28/1/1 27/1/1
f 31/1/1 30/1/1 29/1/1
f 31/1/1 29/1/1 28/1/1
f 33/1/1 31/1/1 27/1/1
f 33/1/1 32/1/1 31/1/1
f 34/1/1 32/1/1 33/1/1
f 35/1/1 32/1/1 34/1/1
f 37/1/1 36/1/1 35/1/1
f 37/1/1 35/1/1 34/1/1
f 38/1/1 36/1/1 37/1/1
f 39/1/1 33/1/1 27/1/1
f 40/1/1 36/1/1 38/1/1
f 41/1/1 39/1/1 27/1/1
f 41/1/1 40/1/1 39/1/1
f 42/1/1 36/1/1 40/1/1
f 42/1/1 40/1/1 41/1/1
f 45/2/1 44/2/1 43/2/1
f 46/2/1 44/2/1 45/2/1
f 51/1/1 48/1/1 47/1/1
f 52/1/1 48/1/1 51/1/1
f 54/1/1 50/1/1 49/1/1
f 55/1/1 50/1/1 54/1/1
f 55/1/1 54/1/1 53/1/1
f 56/1/1 50/1/1 55/1/1
f 57/1/1 55/1/1 53/1/1
f 58/1/1 55/1/1 57/1/1
f 61/1/1 60/1/1 59/1/1
f 63/1/1 61/1/1 59/1/1
f 63/1/1 62/1/1 61/1/1
f 64/1/1 62/1/1 63/1/1
f 68/2/1 66/2/1 65/2/1
f 69/2/1 68/2/1 67/2/1
f 70/2/1 66/2/1 68/2/1
f 70/2/1 68/2/1 69/2/1
f 73/3/1 72/3/1 71/3/1
f 74/3/1 72/3/1 73/3/1
f 75/3/1 73/3/1 71/3/1
f 76/3/1 73/3/1 75/3/1
f 77/3/1 75/3/1 71/3/1
f 78/3/1 75/3/1 77/3/1
f 81/2/1 80/2/1 79/2/1
f 82/2/1 80/2/1 81/2/1
f 85/1/1 84/1/1 83/1/1
f 88/1/1 85/1/1 83/1/1
f 88/1/1 86/1/1 85/1/1
f 89/1/1 86/1/1 88/1/1
f 91/1/1 88/1/1 87/1/1
f 91/1/1 90/1/1 89/1/1
f 91/1/1 89/1/1 88/1/1
f 92/1/1 90/1/1 91/1/1
f 97/2/1 94/2/1 93/2/1
f 98/2/1 94/2/1 97/2/1
f 99/2/1 96/2/1 95/2/1
f 100/2/1 96/2/1 99/2/1
f 103/2/1 102/2/1 101/2/1
f 104/2/1 102/2/1 103/2/1
f 105/2/2 106/2/2 107/2/2
f 107/2/2 106/2/2 108/2/2
f 109/2/2 110/2/2 113/2/2
f 113/2/2 110/2/2 114/2/2
f 111/2/2 112/2/2 115/2/2
f 115/2/2 112/2/2 116/2/2
f 117/2/2 118/2/2 119/2/2
f 119/2/2 118/2/2 120/2/2
f 121/1/2 122/1/2 123/1/2
f 121/1/2 123/1/2 126/1/2
f 123/1/2 124/1/2 126/1/2
f 126/1/2 124/1/2 127/1/2
f 125/1/2 126/1/2 129/1/2
f 127/1/2 128/1/2 129/1/2
f 126/1/2 127/1/2 129/1/2
f 129/1/2 128/1/2 130/1/2
f 131/1/2 132/1/2 133/1/2
f 131/1/2 133/1/2 135/1/2
f 133/1/2 134/1/2 135/1/2
f 135/1/2 134/1/2 136/1/2
f 137/2/2 138/2/2 140/2/2
f 139/2/2 140/2/2 141/2/2
f 140/2/2 138/2/2 142/2/2
f 141/2/2 140/2/2 142/2/2
f 143/3/2 144/3/2 145/3/2
f 145/3/2 144/3/2 146/3/2
f 143/3/2 145/3/2 147/3/2
f 147/3/2 145/3/2 148/3/2
f 143/3/2 147/3/2 149/3/2
f 149/3/2 147/3/2 150/3/2
f 151/2/2 152/2/2 153/2/2
f 153/2/2 152/2/2 154/2/2
f 155/1/2 156/1/2 159/1/2
f 159/1/2 156/1/2 160/1/2
f 157/1/2 158/1/2 162/1/2
f 162/1/2 158/1/2 163/1/2
f 161/1/2 162/1/2 163/1/2
f 163/1/2 158/1/2 164/1/2
f 161/1/2 163/1/2 165/1/2
f 165/1/2 163/1/2 166/1/2
f 167/2/2 168/2/2 171/2/2
f 171/2/2 168/2/2 172/2/2
f 169/2/2 170/2/2 174/2/2
f 174/2/2 170/2/2 175/2/2
f 173/1/2 174/1/2 177/1/2
f 175/1/2 176/1/2 177/1/2
f 174/1/2 175/1/2 177/1/2
f 173/1/2 177/1/2 180/1/2
f 177/1/2 178/1/2 180/1/2
f 180/1/2 178/1/2 181/1/2
f 180/1/2 181/1/2 184/1/2
f 181/1/2 182/1/2 184/1/2
f 179/1/2 180/1/2 184/1/2
f 184/1/2 182/1/2 185/1/2
f 183/1/2 184/1/2 187/1/2
f 185/1/2 186/1/2 187/1/2
f 184/1/2 185/1/2 187/1/2
f 183/1/2 187/1/2 189/1/2
f 187/1/2 188/1/2 189/1/2
f 189/1/2 188/1/2 190/1/2
f 190/1/2 188/1/2 191/1/2
f 191/1/2 192/1/2 193/1/2
f 190/1/2 191/1/2 193/1/2
f 193/1/2 192/1/2 194/1/2
f 183/1/2 189/1/2 195/1/2
f 194/1/2 192/1/2 196/1/2
f 183/1/2 195/1/2 197/1/2
f 195/1/2 196/1/2 197/1/2
f 196/1/2 192/1/2 198/1/2
f 197/1/2 196/1/2 198/1/2
f 199/2/2 200/2/2 201/2/2
f 201/2/2 200/2/2 202/2/2
f 203/1/2 204/1/2 205/1/2
f 203/1/2 205/1/2 207/1/2
f 205/1/2 206/1/2 207/1/2
f 207/1/2 206/1/2 208/1/2
f 211/2/3 210/2/3 209/2/3
f 212/2/3 210/2/3 211/2/3
f 215/2/3 214/2/3 213/2/3
f 216/2/3 214/2/3 215/2/3
f 219/1/3 218/1/3 217/1/3
f 220/1/3 218/1/3 219/1/3
f 221/1/3 218/1/3 220/1/3
f 223/1/3 219/1/3 217/1/3
f 224/1/3 221/1/3 220/1/3
f 225/3/3 222/3/3 221/3/3
f 225/1/3 221/1/3 224/1/3
f 226/3/3 222/3/3 225/3/3
f 227/1/3 224/1/3 223/1/3
f 227/1/3 223/1/3 217/1/3
f 227/1/3 225/1/3 224/1/3
f 228/1/3 225/1/3 227/1/3
f 231/2/3 230/2/3 229/2/3
f 232/2/3 230/2/3 231/2/3
f 235/2/3 234/2/3 233/2/3
f 236/2/3 234/2/3 235/2/3
f 239/2/3 238/2/3 237/2/3
f 240/2/3 238/2/3 239/2/3
f 243/2/3 242/2/3 241/2/3
f 244/2/3 242/2/3 243/2/3
f 247/1/3 246/1/3 245/1/3
f 249/1/3 247/1/3 245/1/3
f 249/1/3 248/1/3 247/1/3
f 250/1/3 248/1/3 249/1/3
f 251/1/3 249/1/3 245/1/3
f 252/1/3 249/1/3 251/1/3
f 255/1/3 254/1/3 253/1/3
f 256/1/3 254/1/3 255/1/3
f 259/1/3 258/1/3 257/1/3
f 260/1/3 258/1/3 259/1/3
f 267/1/3 262/1/3 261/1/3
f 268/1/3 262/1/3 267/1/3
f 269/2/3 264/2/3 263/2/3
f 270/2/3 264/2/3 269/2/3
f 271/1/3 266/1/3 265/1/3
f 272/1/3 266/1/3 271/1/3
f 277/2/3 276/2/3 275/2/3
f 278/2/3 276/2/3 277/2/3
f 279/1/3 274/1/3 273/1/3
f 280/1/3 274/1/3 279/1/3
f 283/1/3 282/1/3 281/1/3
f 284/1/3 282/1/3 283/1/3
f 287/2/3 286/2/3 285/2/3
f 288/2/3 286/2/3 287/2/3
f 291/2/3 290/2/3 289/2/3
f 292/2/3 290/2/3 291/2/3
f 293/3/4 294/3/4 295/3/4
f 295/3/4 294/3/4 296/3/4
f 297/3/4 298/3/4 299/3/4
f 299/3/4 298/3/4 300/3/4
f 301/1/4 302/1/4 303/1/4
f 301/1/4 303/1/4 305/1/4
f 303/3/4 304/3/4 305/3/4
f 305/3/4 304/3/4 306/3/4
f 301/1/4 305/1/4 307/1/4
f 307/1/4 305/1/4 308/1/4
f 309/1/4 310/1/4 311/1/4
f 311/1/4 310/1/4 312/1/4
f 313/2/4 314/2/4 315/2/4
f 315/2/4 314/2/4 316/2/4
f 317/2/4 318/2/4 319/2/4
f 319/2/4 318/2/4 320/2/4
f 321/2/4 322/2/4 323/2/4
f 323/2/4 322/2/4 324/2/4
f 327/2/4 328/2/4 329/2/4
f 329/2/4 328/2/4 330/2/4
f 325/1/4 326/1/4 331/1/4
f 331/1/4 326/1/4 332/1/4
f 333/2/4 334/2/4 337/2/4
f 337/2/4 334/2/4 338/2/4
f 335/1/4 336/1/4 341/1/4
f 341/1/4 336/1/4 342/1/4
f 339/2/4 340/2/4 343/2/4
f 343/2/4 340/2/4 344/2/4
f 345/2/4 346/2/4 349/2/4
f 349/2/4 346/2/4 350/2/4
f 347/1/4 348/1/4 351/1/4
f 351/1/4 348/1/4 352/1/4
f 355/2/4 356/2/4 357/2/4
f 357/2/4 356/2/4 358/2/4
f 353/1/4 354/1/4 359/1/4
f 359/1/4 354/1/4 360/1/4
f 361/1/4 362/1/4 365/1/4
f 365/1/4 362/1/4 366/1/4
f 363/1/4 364/1/4 367/1/4
f 367/1/4 364/1/4 368/1/4
f 369/1/4 370/1/4 371/1/4
f 371/1/4 370/1/4 372/1/4
f 373/1/4 374/1/4 375/1/4
f 375/1/4 374/1/4 376/1/4
f 377/1/4 378/1/4 381/1/4
f 381/1/4 378/1/4 382/1/4
f 379/1/4 380/1/4 383/1/4
f 383/1/4 380/1/4 384/1/4
f 385/1/4 386/1/4 387/1/4
f 387/1/4 386/1/4 388/1/4
f 389/1/4 390/1/4 391/1/4
f 391/1/4 390/1/4 392/1/4
f 393/1/4 394/1/4 395/1/4
f 395/1/4 394/1/4 396/1/4
f 397/1/4 398/1/4 399/1/4
f 399/1/4 398/1/4 400/1/4
f 401/1/4 402/1/4 403/1/4
f 403/1/4 402/1/4 404/1/4
f 401/1/4 403/1/4 405/1/4
f 401/1/4 405/1/4 407/1/4
f 405/1/4 406/1/4 407/1/4
f 407/1/4 406/1/4 408/1/4
f 409/1/4 410/1/4 411/1/4
f 411/1/4 410/1/4 412/1/4
f 413/1/4 414/1/4 415/1/4
f 415/1/4 414/1/4 416/1/4
f 425/2/5 418/2/5 417/2/5
f 426/2/5 420/2/5 419/2/5
f 427/2/5 422/2/5 421/2/5
f 428/2/5 424/2/5 423/2/5
f 429/2/5 425/2/5 417/2/5
f 429/2/5 426/2/5 425/2/5
f 430/2/5 426/2/5 429/2/5
f 431/2/5 420/2/5 426/2/5
f 431/2/5 426/2/5 430/2/5
f 432/2/5 420/2/5 431/2/5
f 433/2/5 427/2/5 421/2/5
f 433/2/5 428/2/5 427/2/5
f 434/2/5 428/2/5 433/2/5
f 435/2/5 424/2/5 428/2/5
f 435/2/5 428/2/5 434/2/5
f 436/2/5 424/2/5 435/2/5
f 437/2/5 431/2/5 430/2/5
f 438/2/5 431/2/5 437/2/5
f 439/2/5 435/2/5 434/2/5
f 440/2/5 435/2/5 439/2/5
f 445/1/5 442/1/5 441/1/5
f 446/1/5 442/1/5 445/1/5
f 447/1/5 444/1/5 443/1/5
f 448/1/5 444/1/5 447/1/5
f 450/1/5 442/1/5 446/1/5
f 451/1/5 447/1/5 443/1/5
f 453/1/5 450/1/5 449/1/5
f 454/1/5 442/1/5 450/1/5
f 454/1/5 450/1/5 453/1/5
f 455/1/5 452/1/5 451/1/5
f 455/1/5 451/1/5 443/1/5
f 456/1/5 452/1/5 455/1/5
f 461/1/5 458/1/5 457/1/5
f 462/1/5 458/1/5 461/1/5
f 463/1/5 460/1/5 459/1/5
f 464/1/5 460/1/5 463/1/5
f 469/1/5 466/1/5 465/1/5
f 470/1/5 466/1/5 469/1/5
f 471/1/5 468/1/5 467/1/5
f 472/1/5 468/1/5 471/1/5
f 477/1/5 474/1/5 473/1/5
f 478/1/5 474/1/5 477/1/5
f 479/1/5 476/1/5 475/1/5
f 480/1/5 476/1/5 479/1/5
f 483/1/5 482/1/5 481/1/5
f 484/1/5 482/1/5 483/1/5
f 485/1/5 482/1/5 484/1/5
f 486/1/5 482/1/5 485/1/5
f 488/1/5 485/1/5 484/1/5
f 489/1/5 485/1/5 488/1/5
f 491/1/5 488/1/5 487/1/5
f 491/1/5 490/1/5 489/1/5
f 491/1/5 489/1/5 488/1/5
f 492/1/5 490/1/5 491/1/5
f 495/1/5 494/1/5 493/1/5
f 496/1/5 494/1/5 495/1/5
f 501/1/5 498/1/5 497/1/5
f 502/1/5 498/1/5 501/1/5
f 503/1/5 500/1/5 499/1/5
f 504/1/5 500/1/5 503/1/5
f 507/1/5 506/1/5 505/1/5
f 508/1/5 506/1/5 507/1/5
f 509/1/5 506/1/5 508/1/5
f 510/1/5 506/1/5 509/1/5
f 511/1/5 509/1/5 508/1/5
f 512/1/5 509/1/5 511/1/5
f 517/1/5 514/1/5 513/1/5
f 518/1/5 514/1/5 517/1/5
f 519/1/5 516/1/5 515/1/5
f 520/1/5 516/1/5 519/1/5
f 523/1/5 522/1/5 521/1/5
f 524/1/5 522/1/5 523/1/5
f 527/1/5 526/1/5 525/1/5
f 528/1/5 526/1/5 527/1/5
f 531/1/5 530/1/5 529/1/5
f 532/1/5 530/1/5 531/1/5
f 535/2/5 534/2/5 533/2/5
f 536/2/5 534/2/5 535/2/5
f 539/2/5 538/2/5 537/2/5
f 540/2/5 538/2/5 539/2/5
f 541/2/6 542/2/6 549/2/6
f 543/2/6 544/2/6 550/2/6
f 545/2/6 546/2/6 551/2/6
f 547/2/6 548/2/6 552/2/6
f 541/2/6 549/2/6 553/2/6
f 549/2/6 550/2/6 553/2/6
f 550/2/6 544/2/6 554/2/6
f 553/2/6 550/2/6 554/2/6
f 545/2/6 551/2/6 555/2/6
f 551/2/6 552/2/6 555/2/6
f 552/2/6 548/2/6 556/2/6
f 555/2/6 552/2/6 556/2/6
f 541/2/6 553/2/6 557/2/6
f 554/2/6 544/2/6 558/2/6
f 545/2/6 555/2/6 559/2/6
f 556/2/6 548/2/6 560/2/6
f 541/2/6 557/2/6 561/2/6
f 557/2/6 558/2/6 561/2/6
f 561/2/6 558/2/6 562/2/6
f 558/2/6 544/2/6 563/2/6
f 562/2/6 558/2/6 563/2/6
f 563/2/6 544/2/6 564/2/6
f 559/2/6 560/2/6 565/2/6
f 545/2/6 559/2/6 565/2/6
f 565/2/6 560/2/6 566/2/6
f 560/2/6 548/2/6 567/2/6
f 566/2/6 560/2/6 567/2/6
f 567/2/6 548/2/6 568/2/6
f 562/2/6 563/2/6 569/2/6
f 569/2/6 563/2/6 570/2/6
f 566/2/6 567/2/6 571/2/6
f 571/2/6 567/2/6 572/2/6
f 573/1/6 574/1/6 577/1/6
f 577/1/6 574/1/6 578/1/6
f 575/1/6 576/1/6 579/1/6
f 579/1/6 576/1/6 580/1/6
f 581/1/6 582/1/6 585/1/6
f 583/1/6 584/1/6 586/1/6
f 581/1/6 585/1/6 587/1/6
f 585/1/6 586/1/6 587/1/6
f 587/1/6 586/1/6 588/1/6
f 586/1/6 584/1/6 589/1/6
f 588/1/6 586/1/6 589/1/6
f 589/1/6 584/1/6 590/1/6
f 588/1/6 589/1/6 591/1/6
f 591/1/6 589/1/6 592/1/6
f 592/1/6 589/1/6 593/1/6
f 593/1/6 589/1/6 594/1/6
f 592/1/6 593/1/6 595/1/6
f 595/1/6 593/1/6 596/1/6
f 597/2/6 598/2/6 599/2/6
f 599/2/6 598/2/6 600/2/6
f 601/1/6 602/1/6 603/1/6
f 603/1/6 602/1/6 604/1/6
f 605/1/6 606/1/6 609/1/6
f 609/1/6 606/1/6 610/1/6
f 607/1/6 608/1/6 611/1/6
f 611/1/6 608/1/6 612/1/6
f 613/3/6 614/3/6 615/3/6
f 615/3/6 614/3/6 616/3/6
f 617/3/6 618/3/6 619/3/6
f 619/3/6 618/3/6 620/3/6
f 621/3/6 622/3/6 623/3/6
f 623/3/6 622/3/6 624/3/6
